M48
METRIC
T1C0.800
T2C0.800
T3C1.000
T4C3.500
%
G90
G05
T1
X95.715Y-112.872
X101.6Y-106.68
X104.14Y-71.12
X104.14Y-93.98
X104.14Y-99.06
X104.14Y-109.22
X114.3Y-68.58
X116.84Y-76.2
X119.38Y-86.36
X120.649Y-124.051
X124.46Y-71.12
X124.46Y-119.38
X129.54Y-93.98
X129.54Y-119.38
X134.62Y-66.04
T2
X101.6Y-122.0
X101.6Y-127.0
X137.16Y-76.2
X142.16Y-76.2
T3
X90.18Y-78.74
X90.18Y-86.36
X90.18Y-93.98
X90.18Y-101.6
X90.18Y-109.22
X90.18Y-116.84
X92.72Y-78.74
X92.72Y-86.36
X92.72Y-93.98
X92.72Y-101.6
X92.72Y-109.22
X92.72Y-116.84
X95.26Y-78.74
X95.26Y-86.36
X95.26Y-93.98
X95.26Y-101.6
X95.26Y-109.22
X97.8Y-78.74
X97.8Y-86.36
X97.8Y-93.98
X97.8Y-101.6
X97.8Y-109.22
X109.23Y-76.39
X109.23Y-78.93
X109.23Y-81.47
X109.23Y-84.01
X109.23Y-86.55
X109.23Y-89.09
X109.23Y-91.63
X109.23Y-94.17
X109.23Y-96.71
X109.23Y-99.25
X109.23Y-101.79
X109.23Y-104.33
X109.23Y-106.87
X109.23Y-109.41
X109.23Y-111.95
X110.49Y-129.54
X111.76Y-63.505
X113.03Y-129.54
X114.3Y-63.505
X115.57Y-129.54
X116.84Y-63.505
X118.11Y-129.54
X119.38Y-63.505
X120.65Y-129.54
X121.92Y-63.505
X123.19Y-129.54
X124.47Y-76.39
X124.47Y-78.93
X124.47Y-81.47
X124.47Y-84.01
X124.47Y-86.55
X124.47Y-89.09
X124.47Y-91.63
X124.47Y-94.17
X124.47Y-96.71
X124.47Y-99.25
X124.47Y-101.79
X124.47Y-104.33
X124.47Y-106.87
X124.47Y-109.41
X124.47Y-111.95
X137.16Y-81.28
X137.16Y-96.52
X137.16Y-104.14
X137.16Y-111.76
X137.16Y-119.38
X139.7Y-81.28
X139.7Y-88.9
X139.7Y-96.52
X139.7Y-104.14
X139.7Y-111.76
X139.7Y-119.38
X142.24Y-81.28
X142.24Y-88.9
X142.24Y-96.52
X142.24Y-104.14
X142.24Y-111.76
X142.24Y-119.38
T4
X91.44Y-63.5
X91.44Y-129.54
X142.24Y-63.5
X142.24Y-129.54
T0
M30
