M48
METRIC
T1C0.800
T2C0.800
T3C1.000
T4C3.500
%
G90
G05
T1
X170.18Y-111.76
X175.26Y-111.76
X175.26Y-114.3
X177.8Y-71.12
X177.8Y-119.38
X177.8Y-127.0
X182.88Y-76.2
X182.88Y-114.3
X185.42Y-71.12
X185.42Y-78.74
X186.425Y-110.541
X187.96Y-119.38
X192.752Y-110.467
X192.928Y-126.056
X203.2Y-129.54
X205.74Y-134.62
T2
X195.66Y-88.9
X200.66Y-88.9
T3
X122.94Y-107.95
X125.48Y-107.95
X128.02Y-107.95
X130.56Y-107.95
X132.08Y-59.69
X133.1Y-107.95
X134.62Y-59.69
X135.64Y-107.95
X137.16Y-59.69
X138.18Y-107.95
X139.7Y-59.69
X140.72Y-107.95
X142.24Y-59.69
X143.26Y-107.95
X144.78Y-59.69
X145.8Y-107.95
X147.32Y-59.69
X149.86Y-59.69
X149.86Y-107.95
X152.4Y-107.95
X154.94Y-59.69
X154.94Y-107.95
X157.48Y-59.69
X157.48Y-107.95
X160.02Y-59.69
X160.02Y-107.95
X162.56Y-59.69
X162.56Y-107.95
X165.1Y-59.69
X165.1Y-107.95
X167.64Y-59.69
X167.64Y-107.95
X187.96Y-137.16
X190.5Y-60.325
X190.5Y-62.865
X190.5Y-65.405
X190.5Y-71.12
X190.5Y-73.66
X190.5Y-76.2
X190.5Y-78.74
X190.5Y-81.28
X190.5Y-99.06
X190.5Y-106.68
X190.5Y-114.3
X190.5Y-121.92
X190.5Y-129.54
X190.5Y-137.16
X190.5Y-144.78
X193.04Y-99.06
X193.04Y-106.68
X193.04Y-114.3
X193.04Y-121.92
X193.04Y-129.54
X193.04Y-137.16
X193.04Y-144.78
X193.04Y-149.86
X195.58Y-93.98
X195.58Y-99.06
X195.58Y-106.68
X195.58Y-114.3
X195.58Y-121.92
X195.58Y-129.54
X195.58Y-137.16
X195.58Y-144.78
X195.58Y-149.86
X198.12Y-60.325
X198.12Y-62.865
X198.12Y-65.405
X198.12Y-93.98
X198.12Y-99.06
X198.12Y-106.68
X198.12Y-114.3
X198.12Y-121.92
X198.12Y-129.54
X198.12Y-137.16
X200.66Y-75.565
X200.66Y-78.105
X200.66Y-80.645
X200.66Y-137.16
X205.74Y-60.325
X205.74Y-62.865
X205.74Y-65.405
X207.991Y-75.531
X207.991Y-78.071
X212.383Y-62.961
X212.383Y-65.501
X212.41Y-57.667
X214.95Y-57.667
T4
X114.3Y-55.88
X220.98Y-55.88
X220.98Y-149.86
T0
M30
