%TF.GenerationSoftware,KiCad,Pcbnew,(6.0.1)*%
%TF.CreationDate,2022-01-26T17:31:55+01:00*%
%TF.ProjectId,carte_kicad_F46NG,63617274-655f-46b6-9963-61645f463436,rev?*%
%TF.SameCoordinates,Original*%
%TF.FileFunction,Other,ECO1*%
%FSLAX46Y46*%
G04 Gerber Fmt 4.6, Leading zero omitted, Abs format (unit mm)*
G04 Created by KiCad (PCBNEW (6.0.1)) date 2022-01-26 17:31:55*
%MOMM*%
%LPD*%
G01*
G04 APERTURE LIST*
%ADD10C,0.150000*%
G04 APERTURE END LIST*
D10*
X198985714Y-150110000D02*
X199700000Y-150110000D01*
X198842857Y-150538571D02*
X199342857Y-149038571D01*
X199842857Y-150538571D01*
X201057142Y-150538571D02*
X200342857Y-150538571D01*
X200342857Y-149038571D01*
X201557142Y-150538571D02*
X201557142Y-149038571D01*
X202271428Y-150538571D02*
X202271428Y-149038571D01*
X202771428Y-150110000D01*
X203271428Y-149038571D01*
X203271428Y-150538571D01*
X205628571Y-149752857D02*
X205842857Y-149824285D01*
X205914285Y-149895714D01*
X205985714Y-150038571D01*
X205985714Y-150252857D01*
X205914285Y-150395714D01*
X205842857Y-150467142D01*
X205700000Y-150538571D01*
X205128571Y-150538571D01*
X205128571Y-149038571D01*
X205628571Y-149038571D01*
X205771428Y-149110000D01*
X205842857Y-149181428D01*
X205914285Y-149324285D01*
X205914285Y-149467142D01*
X205842857Y-149610000D01*
X205771428Y-149681428D01*
X205628571Y-149752857D01*
X205128571Y-149752857D01*
X206557142Y-149181428D02*
X206628571Y-149110000D01*
X206771428Y-149038571D01*
X207128571Y-149038571D01*
X207271428Y-149110000D01*
X207342857Y-149181428D01*
X207414285Y-149324285D01*
X207414285Y-149467142D01*
X207342857Y-149681428D01*
X206485714Y-150538571D01*
X207414285Y-150538571D01*
X199128571Y-145405197D02*
X199128571Y-143905197D01*
X199628571Y-144976626D01*
X200128571Y-143905197D01*
X200128571Y-145405197D01*
X201128571Y-143905197D02*
X201414285Y-143905197D01*
X201557142Y-143976626D01*
X201700000Y-144119483D01*
X201771428Y-144405197D01*
X201771428Y-144905197D01*
X201700000Y-145190911D01*
X201557142Y-145333768D01*
X201414285Y-145405197D01*
X201128571Y-145405197D01*
X200985714Y-145333768D01*
X200842857Y-145190911D01*
X200771428Y-144905197D01*
X200771428Y-144405197D01*
X200842857Y-144119483D01*
X200985714Y-143976626D01*
X201128571Y-143905197D01*
X202200000Y-143905197D02*
X203057142Y-143905197D01*
X202628571Y-145405197D02*
X202628571Y-143905197D01*
X203557142Y-144619483D02*
X204057142Y-144619483D01*
X204271428Y-145405197D02*
X203557142Y-145405197D01*
X203557142Y-143905197D01*
X204271428Y-143905197D01*
X204914285Y-143905197D02*
X204914285Y-145119483D01*
X204985714Y-145262340D01*
X205057142Y-145333768D01*
X205200000Y-145405197D01*
X205485714Y-145405197D01*
X205628571Y-145333768D01*
X205700000Y-145262340D01*
X205771428Y-145119483D01*
X205771428Y-143905197D01*
X207342857Y-145405197D02*
X206842857Y-144690911D01*
X206485714Y-145405197D02*
X206485714Y-143905197D01*
X207057142Y-143905197D01*
X207200000Y-143976626D01*
X207271428Y-144048054D01*
X207342857Y-144190911D01*
X207342857Y-144405197D01*
X207271428Y-144548054D01*
X207200000Y-144619483D01*
X207057142Y-144690911D01*
X206485714Y-144690911D01*
X189911892Y-140461517D02*
X190126178Y-140532945D01*
X190197606Y-140604374D01*
X190269035Y-140747231D01*
X190269035Y-140961517D01*
X190197606Y-141104374D01*
X190126178Y-141175802D01*
X189983320Y-141247231D01*
X189411892Y-141247231D01*
X189411892Y-139747231D01*
X189911892Y-139747231D01*
X190054749Y-139818660D01*
X190126178Y-139890088D01*
X190197606Y-140032945D01*
X190197606Y-140175802D01*
X190126178Y-140318660D01*
X190054749Y-140390088D01*
X189911892Y-140461517D01*
X189411892Y-140461517D01*
X191626178Y-141247231D02*
X190911892Y-141247231D01*
X190911892Y-139747231D01*
X192126178Y-139747231D02*
X192126178Y-140961517D01*
X192197606Y-141104374D01*
X192269035Y-141175802D01*
X192411892Y-141247231D01*
X192697606Y-141247231D01*
X192840463Y-141175802D01*
X192911892Y-141104374D01*
X192983320Y-140961517D01*
X192983320Y-139747231D01*
X193697606Y-140461517D02*
X194197606Y-140461517D01*
X194411892Y-141247231D02*
X193697606Y-141247231D01*
X193697606Y-139747231D01*
X194411892Y-139747231D01*
X194840463Y-139747231D02*
X195697606Y-139747231D01*
X195269035Y-141247231D02*
X195269035Y-139747231D01*
X196483320Y-139747231D02*
X196769035Y-139747231D01*
X196911892Y-139818660D01*
X197054749Y-139961517D01*
X197126178Y-140247231D01*
X197126178Y-140747231D01*
X197054749Y-141032945D01*
X196911892Y-141175802D01*
X196769035Y-141247231D01*
X196483320Y-141247231D01*
X196340463Y-141175802D01*
X196197606Y-141032945D01*
X196126178Y-140747231D01*
X196126178Y-140247231D01*
X196197606Y-139961517D01*
X196340463Y-139818660D01*
X196483320Y-139747231D01*
X198054749Y-139747231D02*
X198340463Y-139747231D01*
X198483320Y-139818660D01*
X198626178Y-139961517D01*
X198697606Y-140247231D01*
X198697606Y-140747231D01*
X198626178Y-141032945D01*
X198483320Y-141175802D01*
X198340463Y-141247231D01*
X198054749Y-141247231D01*
X197911892Y-141175802D01*
X197769035Y-141032945D01*
X197697606Y-140747231D01*
X197697606Y-140247231D01*
X197769035Y-139961517D01*
X197911892Y-139818660D01*
X198054749Y-139747231D01*
X199126178Y-139747231D02*
X199983320Y-139747231D01*
X199554749Y-141247231D02*
X199554749Y-139747231D01*
X200483320Y-141247231D02*
X200483320Y-139747231D01*
X200483320Y-140461517D02*
X201340463Y-140461517D01*
X201340463Y-141247231D02*
X201340463Y-139747231D01*
X208127584Y-54486816D02*
X208841870Y-54486816D01*
X207984727Y-54915387D02*
X208484727Y-53415387D01*
X208984727Y-54915387D01*
X210199012Y-54915387D02*
X209484727Y-54915387D01*
X209484727Y-53415387D01*
X210699012Y-54915387D02*
X210699012Y-53415387D01*
X211413298Y-54915387D02*
X211413298Y-53415387D01*
X211913298Y-54486816D01*
X212413298Y-53415387D01*
X212413298Y-54915387D01*
X214770441Y-54129673D02*
X214984727Y-54201101D01*
X215056155Y-54272530D01*
X215127584Y-54415387D01*
X215127584Y-54629673D01*
X215056155Y-54772530D01*
X214984727Y-54843958D01*
X214841870Y-54915387D01*
X214270441Y-54915387D01*
X214270441Y-53415387D01*
X214770441Y-53415387D01*
X214913298Y-53486816D01*
X214984727Y-53558244D01*
X215056155Y-53701101D01*
X215056155Y-53843958D01*
X214984727Y-53986816D01*
X214913298Y-54058244D01*
X214770441Y-54129673D01*
X214270441Y-54129673D01*
X216556155Y-54915387D02*
X215699012Y-54915387D01*
X216127584Y-54915387D02*
X216127584Y-53415387D01*
X215984727Y-53629673D01*
X215841870Y-53772530D01*
X215699012Y-53843958D01*
X215385602Y-64363174D02*
X216099888Y-64363174D01*
X215242745Y-64791745D02*
X215742745Y-63291745D01*
X216242745Y-64791745D01*
X217457030Y-64791745D02*
X216742745Y-64791745D01*
X216742745Y-63291745D01*
X217957030Y-64791745D02*
X217957030Y-63291745D01*
X218671316Y-64791745D02*
X218671316Y-63291745D01*
X219171316Y-64363174D01*
X219671316Y-63291745D01*
X219671316Y-64791745D01*
X222028459Y-64006031D02*
X222242745Y-64077459D01*
X222314173Y-64148888D01*
X222385602Y-64291745D01*
X222385602Y-64506031D01*
X222314173Y-64648888D01*
X222242745Y-64720316D01*
X222099888Y-64791745D01*
X221528459Y-64791745D01*
X221528459Y-63291745D01*
X222028459Y-63291745D01*
X222171316Y-63363174D01*
X222242745Y-63434602D01*
X222314173Y-63577459D01*
X222314173Y-63720316D01*
X222242745Y-63863174D01*
X222171316Y-63934602D01*
X222028459Y-64006031D01*
X221528459Y-64006031D01*
X222885602Y-63291745D02*
X223814173Y-63291745D01*
X223314173Y-63863174D01*
X223528459Y-63863174D01*
X223671316Y-63934602D01*
X223742745Y-64006031D01*
X223814173Y-64148888D01*
X223814173Y-64506031D01*
X223742745Y-64648888D01*
X223671316Y-64720316D01*
X223528459Y-64791745D01*
X223099888Y-64791745D01*
X222957030Y-64720316D01*
X222885602Y-64648888D01*
X202044864Y-58701571D02*
X203544864Y-58701571D01*
X202044864Y-59415856D02*
X203544864Y-59415856D01*
X202044864Y-60272999D01*
X203544864Y-60272999D01*
X202830578Y-61487285D02*
X202830578Y-60987285D01*
X202044864Y-60987285D02*
X203544864Y-60987285D01*
X203544864Y-61701571D01*
X202044864Y-63130142D02*
X202759150Y-62630142D01*
X202044864Y-62272999D02*
X203544864Y-62272999D01*
X203544864Y-62844428D01*
X203473436Y-62987285D01*
X203402007Y-63058714D01*
X203259150Y-63130142D01*
X203044864Y-63130142D01*
X202902007Y-63058714D01*
X202830578Y-62987285D01*
X202759150Y-62844428D01*
X202759150Y-62272999D01*
X202473436Y-63701571D02*
X202473436Y-64415856D01*
X202044864Y-63558714D02*
X203544864Y-64058714D01*
X202044864Y-64558714D01*
X203544864Y-66058714D02*
X203544864Y-66987285D01*
X202973436Y-66487285D01*
X202973436Y-66701571D01*
X202902007Y-66844428D01*
X202830578Y-66915856D01*
X202687721Y-66987285D01*
X202330578Y-66987285D01*
X202187721Y-66915856D01*
X202116293Y-66844428D01*
X202044864Y-66701571D01*
X202044864Y-66272999D01*
X202116293Y-66130142D01*
X202187721Y-66058714D01*
X194258868Y-58823864D02*
X195758868Y-58823864D01*
X194258868Y-59538149D02*
X195758868Y-59538149D01*
X194258868Y-60395292D01*
X195758868Y-60395292D01*
X195044582Y-61609578D02*
X195044582Y-61109578D01*
X194258868Y-61109578D02*
X195758868Y-61109578D01*
X195758868Y-61823864D01*
X194258868Y-63252435D02*
X194973154Y-62752435D01*
X194258868Y-62395292D02*
X195758868Y-62395292D01*
X195758868Y-62966721D01*
X195687440Y-63109578D01*
X195616011Y-63181007D01*
X195473154Y-63252435D01*
X195258868Y-63252435D01*
X195116011Y-63181007D01*
X195044582Y-63109578D01*
X194973154Y-62966721D01*
X194973154Y-62395292D01*
X194687440Y-63823864D02*
X194687440Y-64538149D01*
X194258868Y-63681007D02*
X195758868Y-64181007D01*
X194258868Y-64681007D01*
X195616011Y-66252435D02*
X195687440Y-66323864D01*
X195758868Y-66466721D01*
X195758868Y-66823864D01*
X195687440Y-66966721D01*
X195616011Y-67038149D01*
X195473154Y-67109578D01*
X195330297Y-67109578D01*
X195116011Y-67038149D01*
X194258868Y-66181007D01*
X194258868Y-67109578D01*
X186432107Y-58864629D02*
X187932107Y-58864629D01*
X186432107Y-59578914D02*
X187932107Y-59578914D01*
X186432107Y-60436057D01*
X187932107Y-60436057D01*
X187217821Y-61650343D02*
X187217821Y-61150343D01*
X186432107Y-61150343D02*
X187932107Y-61150343D01*
X187932107Y-61864629D01*
X186432107Y-63293200D02*
X187146393Y-62793200D01*
X186432107Y-62436057D02*
X187932107Y-62436057D01*
X187932107Y-63007486D01*
X187860679Y-63150343D01*
X187789250Y-63221772D01*
X187646393Y-63293200D01*
X187432107Y-63293200D01*
X187289250Y-63221772D01*
X187217821Y-63150343D01*
X187146393Y-63007486D01*
X187146393Y-62436057D01*
X186860679Y-63864629D02*
X186860679Y-64578914D01*
X186432107Y-63721772D02*
X187932107Y-64221772D01*
X186432107Y-64721772D01*
X186432107Y-67150343D02*
X186432107Y-66293200D01*
X186432107Y-66721772D02*
X187932107Y-66721772D01*
X187717821Y-66578914D01*
X187574964Y-66436057D01*
X187503536Y-66293200D01*
X188376879Y-85622342D02*
X187662594Y-85622342D01*
X187662594Y-84122342D01*
X188876879Y-85622342D02*
X188876879Y-84122342D01*
X189591165Y-85622342D02*
X189591165Y-84122342D01*
X189948308Y-84122342D01*
X190162594Y-84193771D01*
X190305451Y-84336628D01*
X190376879Y-84479485D01*
X190448308Y-84765199D01*
X190448308Y-84979485D01*
X190376879Y-85265199D01*
X190305451Y-85408056D01*
X190162594Y-85550913D01*
X189948308Y-85622342D01*
X189591165Y-85622342D01*
X191019736Y-85193771D02*
X191734022Y-85193771D01*
X190876879Y-85622342D02*
X191376879Y-84122342D01*
X191876879Y-85622342D01*
X193234022Y-85622342D02*
X192734022Y-84908056D01*
X192376879Y-85622342D02*
X192376879Y-84122342D01*
X192948308Y-84122342D01*
X193091165Y-84193771D01*
X193162594Y-84265199D01*
X193234022Y-84408056D01*
X193234022Y-84622342D01*
X193162594Y-84765199D01*
X193091165Y-84836628D01*
X192948308Y-84908056D01*
X192376879Y-84908056D01*
X211049428Y-77896948D02*
X211763713Y-77896948D01*
X210906571Y-78325519D02*
X211406571Y-76825519D01*
X211906571Y-78325519D01*
X213120856Y-78325519D02*
X212406571Y-78325519D01*
X212406571Y-76825519D01*
X213620856Y-78325519D02*
X213620856Y-76825519D01*
X214335142Y-78325519D02*
X214335142Y-76825519D01*
X214835142Y-77896948D01*
X215335142Y-76825519D01*
X215335142Y-78325519D01*
X217120856Y-77896948D02*
X217835142Y-77896948D01*
X216977999Y-78325519D02*
X217477999Y-76825519D01*
X217977999Y-78325519D01*
X219263713Y-78325519D02*
X218406571Y-78325519D01*
X218835142Y-78325519D02*
X218835142Y-76825519D01*
X218692285Y-77039805D01*
X218549428Y-77182662D01*
X218406571Y-77254090D01*
X201230990Y-122677161D02*
X201230990Y-121177161D01*
X201802419Y-121177161D01*
X201945276Y-121248590D01*
X202016704Y-121320018D01*
X202088133Y-121462875D01*
X202088133Y-121677161D01*
X202016704Y-121820018D01*
X201945276Y-121891447D01*
X201802419Y-121962875D01*
X201230990Y-121962875D01*
X202730990Y-122677161D02*
X202730990Y-121177161D01*
X203445276Y-122677161D02*
X203445276Y-121177161D01*
X204302419Y-122677161D01*
X204302419Y-121177161D01*
X205802419Y-121248590D02*
X205659561Y-121177161D01*
X205445276Y-121177161D01*
X205230990Y-121248590D01*
X205088133Y-121391447D01*
X205016704Y-121534304D01*
X204945276Y-121820018D01*
X204945276Y-122034304D01*
X205016704Y-122320018D01*
X205088133Y-122462875D01*
X205230990Y-122605732D01*
X205445276Y-122677161D01*
X205588133Y-122677161D01*
X205802419Y-122605732D01*
X205873847Y-122534304D01*
X205873847Y-122034304D01*
X205588133Y-122034304D01*
X207588133Y-121320018D02*
X207659561Y-121248590D01*
X207802419Y-121177161D01*
X208159561Y-121177161D01*
X208302419Y-121248590D01*
X208373847Y-121320018D01*
X208445276Y-121462875D01*
X208445276Y-121605732D01*
X208373847Y-121820018D01*
X207516704Y-122677161D01*
X208445276Y-122677161D01*
X201230990Y-99849110D02*
X201230990Y-98349110D01*
X201802419Y-98349110D01*
X201945276Y-98420539D01*
X202016704Y-98491967D01*
X202088133Y-98634824D01*
X202088133Y-98849110D01*
X202016704Y-98991967D01*
X201945276Y-99063396D01*
X201802419Y-99134824D01*
X201230990Y-99134824D01*
X202730990Y-99849110D02*
X202730990Y-98349110D01*
X203445276Y-99849110D02*
X203445276Y-98349110D01*
X204302419Y-99849110D01*
X204302419Y-98349110D01*
X205802419Y-98420539D02*
X205659561Y-98349110D01*
X205445276Y-98349110D01*
X205230990Y-98420539D01*
X205088133Y-98563396D01*
X205016704Y-98706253D01*
X204945276Y-98991967D01*
X204945276Y-99206253D01*
X205016704Y-99491967D01*
X205088133Y-99634824D01*
X205230990Y-99777681D01*
X205445276Y-99849110D01*
X205588133Y-99849110D01*
X205802419Y-99777681D01*
X205873847Y-99706253D01*
X205873847Y-99206253D01*
X205588133Y-99206253D01*
X208373847Y-98349110D02*
X207659561Y-98349110D01*
X207588133Y-99063396D01*
X207659561Y-98991967D01*
X207802419Y-98920539D01*
X208159561Y-98920539D01*
X208302419Y-98991967D01*
X208373847Y-99063396D01*
X208445276Y-99206253D01*
X208445276Y-99563396D01*
X208373847Y-99706253D01*
X208302419Y-99777681D01*
X208159561Y-99849110D01*
X207802419Y-99849110D01*
X207659561Y-99777681D01*
X207588133Y-99706253D01*
X197358737Y-84694861D02*
X197573023Y-84766290D01*
X197930166Y-84766290D01*
X198073023Y-84694861D01*
X198144452Y-84623433D01*
X198215880Y-84480576D01*
X198215880Y-84337719D01*
X198144452Y-84194861D01*
X198073023Y-84123433D01*
X197930166Y-84052004D01*
X197644452Y-83980576D01*
X197501594Y-83909147D01*
X197430166Y-83837719D01*
X197358737Y-83694861D01*
X197358737Y-83552004D01*
X197430166Y-83409147D01*
X197501594Y-83337719D01*
X197644452Y-83266290D01*
X198001594Y-83266290D01*
X198215880Y-83337719D01*
X198858737Y-83980576D02*
X199358737Y-83980576D01*
X199573023Y-84766290D02*
X198858737Y-84766290D01*
X198858737Y-83266290D01*
X199573023Y-83266290D01*
X201073023Y-84766290D02*
X200573023Y-84052004D01*
X200215880Y-84766290D02*
X200215880Y-83266290D01*
X200787309Y-83266290D01*
X200930166Y-83337719D01*
X201001594Y-83409147D01*
X201073023Y-83552004D01*
X201073023Y-83766290D01*
X201001594Y-83909147D01*
X200930166Y-83980576D01*
X200787309Y-84052004D01*
X200215880Y-84052004D01*
X201501594Y-83266290D02*
X202001594Y-84766290D01*
X202501594Y-83266290D01*
X203287309Y-83266290D02*
X203573023Y-83266290D01*
X203715880Y-83337719D01*
X203858737Y-83480576D01*
X203930166Y-83766290D01*
X203930166Y-84266290D01*
X203858737Y-84552004D01*
X203715880Y-84694861D01*
X203573023Y-84766290D01*
X203287309Y-84766290D01*
X203144452Y-84694861D01*
X203001594Y-84552004D01*
X202930166Y-84266290D01*
X202930166Y-83766290D01*
X203001594Y-83480576D01*
X203144452Y-83337719D01*
X203287309Y-83266290D01*
X191447539Y-133683543D02*
X191447539Y-132183543D01*
X192018968Y-132183543D01*
X192161825Y-132254972D01*
X192233253Y-132326400D01*
X192304682Y-132469257D01*
X192304682Y-132683543D01*
X192233253Y-132826400D01*
X192161825Y-132897829D01*
X192018968Y-132969257D01*
X191447539Y-132969257D01*
X192947539Y-133683543D02*
X192947539Y-132183543D01*
X193661825Y-133683543D02*
X193661825Y-132183543D01*
X194518968Y-133683543D01*
X194518968Y-132183543D01*
X196018968Y-132254972D02*
X195876110Y-132183543D01*
X195661825Y-132183543D01*
X195447539Y-132254972D01*
X195304682Y-132397829D01*
X195233253Y-132540686D01*
X195161825Y-132826400D01*
X195161825Y-133040686D01*
X195233253Y-133326400D01*
X195304682Y-133469257D01*
X195447539Y-133612114D01*
X195661825Y-133683543D01*
X195804682Y-133683543D01*
X196018968Y-133612114D01*
X196090396Y-133540686D01*
X196090396Y-133040686D01*
X195804682Y-133040686D01*
X198661825Y-133683543D02*
X197804682Y-133683543D01*
X198233253Y-133683543D02*
X198233253Y-132183543D01*
X198090396Y-132397829D01*
X197947539Y-132540686D01*
X197804682Y-132612114D01*
X201149461Y-107431284D02*
X201149461Y-105931284D01*
X201720890Y-105931284D01*
X201863747Y-106002713D01*
X201935175Y-106074141D01*
X202006604Y-106216998D01*
X202006604Y-106431284D01*
X201935175Y-106574141D01*
X201863747Y-106645570D01*
X201720890Y-106716998D01*
X201149461Y-106716998D01*
X202649461Y-107431284D02*
X202649461Y-105931284D01*
X203363747Y-107431284D02*
X203363747Y-105931284D01*
X204220890Y-107431284D01*
X204220890Y-105931284D01*
X205720890Y-106002713D02*
X205578032Y-105931284D01*
X205363747Y-105931284D01*
X205149461Y-106002713D01*
X205006604Y-106145570D01*
X204935175Y-106288427D01*
X204863747Y-106574141D01*
X204863747Y-106788427D01*
X204935175Y-107074141D01*
X205006604Y-107216998D01*
X205149461Y-107359855D01*
X205363747Y-107431284D01*
X205506604Y-107431284D01*
X205720890Y-107359855D01*
X205792318Y-107288427D01*
X205792318Y-106788427D01*
X205506604Y-106788427D01*
X208220890Y-106431284D02*
X208220890Y-107431284D01*
X207863747Y-105859855D02*
X207506604Y-106931284D01*
X208435175Y-106931284D01*
X201108697Y-115176515D02*
X201108697Y-113676515D01*
X201680126Y-113676515D01*
X201822983Y-113747944D01*
X201894411Y-113819372D01*
X201965840Y-113962229D01*
X201965840Y-114176515D01*
X201894411Y-114319372D01*
X201822983Y-114390801D01*
X201680126Y-114462229D01*
X201108697Y-114462229D01*
X202608697Y-115176515D02*
X202608697Y-113676515D01*
X203322983Y-115176515D02*
X203322983Y-113676515D01*
X204180126Y-115176515D01*
X204180126Y-113676515D01*
X205680126Y-113747944D02*
X205537268Y-113676515D01*
X205322983Y-113676515D01*
X205108697Y-113747944D01*
X204965840Y-113890801D01*
X204894411Y-114033658D01*
X204822983Y-114319372D01*
X204822983Y-114533658D01*
X204894411Y-114819372D01*
X204965840Y-114962229D01*
X205108697Y-115105086D01*
X205322983Y-115176515D01*
X205465840Y-115176515D01*
X205680126Y-115105086D01*
X205751554Y-115033658D01*
X205751554Y-114533658D01*
X205465840Y-114533658D01*
X207394411Y-113676515D02*
X208322983Y-113676515D01*
X207822983Y-114247944D01*
X208037268Y-114247944D01*
X208180126Y-114319372D01*
X208251554Y-114390801D01*
X208322983Y-114533658D01*
X208322983Y-114890801D01*
X208251554Y-115033658D01*
X208180126Y-115105086D01*
X208037268Y-115176515D01*
X207608697Y-115176515D01*
X207465840Y-115105086D01*
X207394411Y-115033658D01*
X201489999Y-94406520D02*
X202204284Y-94406520D01*
X201347141Y-94835091D02*
X201847141Y-93335091D01*
X202347141Y-94835091D01*
X203561427Y-94835091D02*
X202847141Y-94835091D01*
X202847141Y-93335091D01*
X204061427Y-94835091D02*
X204061427Y-93835091D01*
X204061427Y-93335091D02*
X203989999Y-93406520D01*
X204061427Y-93477948D01*
X204132856Y-93406520D01*
X204061427Y-93335091D01*
X204061427Y-93477948D01*
X204775713Y-94835091D02*
X204775713Y-93835091D01*
X204775713Y-93977948D02*
X204847141Y-93906520D01*
X204989999Y-93835091D01*
X205204284Y-93835091D01*
X205347141Y-93906520D01*
X205418570Y-94049377D01*
X205418570Y-94835091D01*
X205418570Y-94049377D02*
X205489999Y-93906520D01*
X205632856Y-93835091D01*
X205847141Y-93835091D01*
X205989999Y-93906520D01*
X206061427Y-94049377D01*
X206061427Y-94835091D01*
X207847141Y-94406520D02*
X208561427Y-94406520D01*
X207704284Y-94835091D02*
X208204284Y-93335091D01*
X208704284Y-94835091D01*
X209061427Y-93335091D02*
X209989999Y-93335091D01*
X209489999Y-93906520D01*
X209704284Y-93906520D01*
X209847141Y-93977948D01*
X209918570Y-94049377D01*
X209989999Y-94192234D01*
X209989999Y-94549377D01*
X209918570Y-94692234D01*
X209847141Y-94763662D01*
X209704284Y-94835091D01*
X209275713Y-94835091D01*
X209132856Y-94763662D01*
X209061427Y-94692234D01*
M02*
